<?xml version="1.0" standalone="no"?>
<!DOCTYPE svg PUBLIC "-//W3C//DTD SVG 20010904//EN"
 "http://www.w3.org/TR/2001/REC-SVG-20010904/DTD/svg10.dtd">
<svg version="1.0" xmlns="http://www.w3.org/2000/svg"
 width="1128.000000pt" height="191.000000pt" viewBox="0 0 1128.000000 191.000000"
 preserveAspectRatio="xMidYMid meet">
<metadata>
Created by potrace 1.16, written by Peter Selinger 2001-2019
</metadata>
<g transform="translate(0.000000,191.000000) scale(0.100000,-0.100000)"
fill="#000000" stroke="none">
<path d="M5611 1648 c-6 -40 -12 -89 -14 -108 -2 -35 -2 -35 -20 19 -10 29
-29 70 -42 91 -28 45 -50 62 -42 34 3 -11 9 -37 13 -59 4 -22 13 -56 21 -75
12 -32 12 -33 -2 -15 -33 43 -81 88 -110 102 l-30 16 21 -24 c21 -24 54 -81
54 -95 0 -4 -8 0 -18 9 -10 9 -36 24 -57 33 l-40 16 43 -44 c24 -25 50 -66 60
-94 l18 -49 50 -3 c45 -3 53 0 68 23 23 34 68 34 90 -1 15 -22 23 -25 69 -22
49 3 52 5 58 34 8 43 44 99 82 129 l32 25 -34 -10 c-19 -5 -41 -16 -50 -23
-36 -31 -43 -30 -25 4 9 19 26 48 38 64 l21 30 -30 -19 c-45 -28 -75 -58 -92
-89 -8 -16 -17 -27 -19 -24 -3 3 1 18 9 34 13 26 32 143 23 143 -9 0 -65 -98
-77 -135 l-13 -40 -14 90 c-7 50 -17 94 -21 98 -5 4 -13 -25 -20 -65z"/>
<path d="M5908 1472 c-7 -18 -30 -39 -68 -59 -81 -46 -171 -47 -183 -3 -6 24
-45 27 -54 4 -3 -9 -1 -25 5 -35 15 -23 16 -66 2 -74 -15 -10 -70 34 -70 56 0
15 -7 19 -36 19 -42 0 -138 51 -155 81 -17 32 -54 21 -55 -16 -2 -49 -50 -145
-72 -145 -10 0 -24 -11 -30 -24 -9 -20 -7 -27 7 -40 10 -9 25 -16 33 -16 20 0
80 -93 73 -112 -3 -8 1 -21 10 -28 8 -7 15 -21 15 -32 0 -10 7 -33 16 -49 8
-17 13 -33 11 -36 -3 -2 -30 20 -62 49 -43 40 -61 66 -75 107 l-18 54 -7 -42
c-10 -59 2 -114 35 -163 35 -51 20 -63 -31 -27 -30 21 -31 21 -20 1 23 -44 64
-66 188 -102 40 -11 75 -24 77 -29 7 -11 -93 -24 -119 -16 -19 6 -19 6 0 -6
11 -7 54 -16 96 -20 45 -4 87 -14 102 -24 39 -25 68 -79 76 -137 5 -43 10 -52
29 -54 15 -3 22 1 22 12 0 30 32 84 63 106 22 16 46 22 81 23 48 0 51 2 51 25
0 20 -6 26 -27 28 -16 2 -28 -1 -28 -7 0 -6 -19 -20 -42 -32 -24 -12 -53 -31
-65 -42 l-23 -20 0 22 c0 53 62 122 125 140 41 11 105 -1 121 -23 15 -21 43
-20 51 2 12 34 75 102 94 102 21 0 25 15 7 26 -7 5 -8 3 -3 -7 7 -11 6 -12 -6
-2 -9 7 -31 11 -52 8 -42 -6 -48 8 -15 34 18 15 19 18 5 24 -11 4 -23 -3 -37
-20 -11 -14 -20 -23 -20 -19 0 17 -202 -97 -239 -136 l-42 -43 3 107 c4 125
13 144 101 195 57 34 97 92 97 141 0 29 -28 29 -39 -1 -12 -32 -72 -119 -78
-113 -2 2 0 13 6 24 23 43 5 43 -42 2 l-34 -30 -6 41 c-3 23 -13 49 -21 58
-19 18 -20 14 -16 -87 2 -62 2 -63 -24 -58 -31 6 -42 -7 -21 -24 12 -10 18
-10 30 0 13 10 15 9 15 -9 0 -11 -3 -21 -7 -21 -5 0 -6 -58 -4 -130 1 -71 1
-130 -3 -130 -3 0 -27 21 -53 48 -27 26 -88 69 -136 95 -92 51 -150 96 -169
131 -7 12 8 3 37 -22 47 -41 230 -139 250 -133 6 1 7 -1 3 -5 -9 -8 9 -34 23
-34 13 0 -9 50 -37 88 -14 18 -30 29 -36 26 -6 -4 -8 -3 -5 3 3 5 -3 22 -14
39 -21 32 -25 21 -9 -22 6 -15 9 -28 7 -30 -2 -2 -22 10 -44 26 -54 40 -90
111 -74 146 9 20 18 24 52 24 24 0 50 -7 59 -15 25 -23 77 -36 77 -20 0 7 -8
10 -19 7 -13 -3 -18 1 -18 15 0 10 -11 34 -25 53 -14 19 -25 39 -25 46 0 18
-29 39 -40 28 -9 -9 -4 -41 14 -84 5 -12 -2 -15 -28 -15 -19 0 -37 3 -41 6
-11 12 48 119 66 119 20 0 49 -31 49 -52 0 -39 54 -48 67 -11 11 32 46 53 91
53 48 0 92 -24 92 -50 0 -10 7 -20 15 -24 24 -9 45 4 45 30 0 24 33 54 61 54
10 0 27 -16 39 -35 29 -48 35 -44 10 6 -25 48 -17 64 37 74 26 5 40 3 48 -7
14 -18 39 -16 47 5 8 19 1 47 -13 47 -20 0 -40 62 -34 101 8 44 -6 69 -37 69
-12 0 -24 -10 -30 -28z"/>
<path d="M2343 994 c-3 -8 -1 -20 6 -27 14 -14 14 -54 1 -62 -15 -9 -38 12
-42 38 -2 14 -11 23 -25 25 -19 3 -23 -1 -23 -22 0 -21 5 -26 24 -26 29 0 45
-18 44 -50 -2 -27 -26 -62 -38 -55 -4 2 -15 -2 -25 -9 -25 -18 -13 -46 20 -46
19 0 25 5 25 23 0 33 18 47 60 47 40 0 60 -14 60 -43 0 -28 44 -19 48 11 3 17
-1 22 -20 22 -31 0 -48 18 -48 51 0 29 14 45 45 51 12 2 20 11 20 23 0 29 -39
27 -43 -2 -2 -12 -10 -27 -18 -33 -29 -25 -60 30 -33 57 15 15 4 43 -16 43 -9
0 -18 -7 -22 -16z"/>
</g>
</svg>
